<svg width="28" height="31" viewBox="0 0 28 31" fill="none" xmlns="http://www.w3.org/2000/svg">
<path fill-rule="evenodd" clip-rule="evenodd" d="M0.90918 8.23598C0.90918 6.35774 2.11106 4.69023 3.89291 4.09627L12.6202 1.18718C13.5159 0.888615 14.4843 0.888614 15.38 1.18718L24.1073 4.09628C25.8891 4.69023 27.091 6.35774 27.091 8.23598V15.9999C27.091 24.0029 19.0034 28.8606 15.542 30.5733C14.5637 31.0573 13.4365 31.0573 12.4582 30.5733C8.99673 28.8606 0.90918 24.0029 0.90918 15.9999V8.23598ZM18.3637 11.6364C18.3637 14.0463 16.4101 16 14.0001 16C11.5901 16 9.63645 14.0463 9.63645 11.6364C9.63645 9.2264 11.5901 7.27274 14.0001 7.27274C16.4101 7.27274 18.3637 9.2264 18.3637 11.6364ZM14.0001 18.9091C16.6101 18.9091 18.9907 19.8911 20.7926 21.5058C21.324 21.982 21.3324 22.7943 20.8361 23.307C20.7481 23.3979 20.6588 23.4881 20.5684 23.5776C18.4261 25.6976 15.847 27.1767 14.252 27.9659C14.0867 28.0476 13.9136 28.0476 13.7483 27.9659C12.1533 27.1767 9.57421 25.6976 7.43188 23.5776C7.34144 23.4881 7.25218 23.3979 7.16418 23.307C6.66789 22.7943 6.67626 21.982 7.2077 21.5058C9.0096 19.8911 11.3902 18.9091 14.0001 18.9091Z" fill="#03519F"/>
</svg>
